<?xml version="1.0" standalone="no"?>
<!DOCTYPE svg PUBLIC "-//W3C//DTD SVG 20010904//EN"
 "http://www.w3.org/TR/2001/REC-SVG-20010904/DTD/svg10.dtd">
<svg version="1.0" xmlns="http://www.w3.org/2000/svg"
 width="600.000000pt" height="600.000000pt" viewBox="0 0 600.000000 600.000000"
 preserveAspectRatio="xMidYMid meet">
<metadata>
Created by potrace 1.11, written by Peter Selinger 2001-2013
</metadata>
<g transform="translate(0.000000,600.000000) scale(0.100000,-0.100000)"
fill="#000000" stroke="none">
<path d="M750 4365 c-177 -39 -354 -179 -430 -340 -13 -27 -27 -57 -31 -66 -4
-9 -15 -51 -24 -93 -14 -68 -15 -174 -10 -909 8 -1124 4 -1029 46 -1107 78
-146 206 -222 368 -216 128 4 256 78 318 184 56 94 55 81 59 721 3 387 8 598
14 606 29 35 72 21 120 -40 17 -22 44 -56 60 -75 123 -152 276 -341 298 -369
15 -18 34 -41 42 -51 8 -10 105 -130 215 -266 110 -136 244 -302 298 -368 54
-67 103 -128 110 -136 72 -89 96 -114 140 -143 71 -47 144 -67 236 -63 264 10
445 288 350 540 -26 70 -71 131 -383 516 -136 168 -344 427 -463 575 -119 149
-225 279 -235 290 -9 11 -122 151 -249 310 -127 160 -248 307 -268 329 -52 56
-161 124 -244 152 -92 32 -242 40 -337 19z"/>
<path d="M2385 4361 c-53 -15 -109 -45 -156 -83 -34 -28 -88 -110 -108 -163
-38 -101 -32 -222 17 -324 9 -20 89 -125 177 -235 88 -109 171 -213 185 -231
26 -34 893 -1115 939 -1171 34 -41 49 -60 91 -114 19 -25 37 -47 40 -50 3 -3
34 -41 69 -85 108 -136 194 -200 332 -246 94 -32 266 -33 366 -1 91 28 177 78
242 140 33 31 195 266 493 712 244 365 445 669 447 675 2 5 7 12 10 15 13 11
167 246 180 275 85 191 29 396 -141 513 -97 66 -90 66 -838 67 -534 1 -687 -1
-734 -12 -271 -62 -397 -378 -246 -613 50 -77 116 -128 205 -158 52 -18 86
-20 266 -20 171 0 210 -2 237 -16 39 -20 64 -65 56 -103 -3 -15 -63 -113 -133
-218 -111 -166 -132 -193 -171 -212 -50 -26 -106 -29 -153 -9 -39 17 -75 55
-208 221 -57 72 -109 137 -116 145 -7 8 -47 58 -88 110 -42 52 -84 104 -93
115 -10 11 -100 124 -202 250 -101 127 -189 235 -195 242 -5 6 -48 59 -95 118
-47 59 -110 137 -140 174 -30 37 -75 94 -99 127 -110 150 -271 211 -436 165z"/>
</g>
</svg>
